<svg xmlns="http://www.w3.org/2000/svg" version="1.1" xmlns:xlink="http://www.w3.org/1999/xlink" xmlns:svgjs="http://svgjs.dev/svgjs" width="2000" height="1247" viewBox="0 0 2000 1247"><g transform="matrix(1,0,0,1,-1.2121212121212466,180.19295587453473)"><svg viewBox="0 0 396 247" data-background-color="#ffffff" preserveAspectRatio="xMidYMid meet" height="1247" width="2000" xmlns="http://www.w3.org/2000/svg" xmlns:xlink="http://www.w3.org/1999/xlink"><g id="tight-bounds" transform="matrix(1,0,0,1,0.2400000000000091,-0.09999999999999432)"><svg viewBox="0 0 395.52 247.2" height="247.2" width="395.52"><g><svg></svg></g><g><svg viewBox="0 0 395.52 247.2" height="247.2" width="395.52"><g transform="matrix(1,0,0,1,95.47649098712446,47.215199999999996)"><svg viewBox="0 0 204.56701802575105 152.7696" height="152.7696" width="204.56701802575105"><g><svg viewBox="0 0 204.56701802575105 152.7696" height="152.7696" width="204.56701802575105"><g><svg viewBox="0 0 204.56701802575105 152.7696" height="152.7696" width="204.56701802575105"><g><svg viewBox="0 0 204.56701802575105 152.7696" height="152.7696" width="204.56701802575105"><g id="textblocktransform"><svg viewBox="0 0 204.56701802575105 152.7696" height="152.7696" width="204.56701802575105" id="textblock"><g><svg viewBox="0 0 204.56701802575105 152.7696" height="152.7696" width="204.56701802575105"><g transform="matrix(1,0,0,1,0,0)"><svg width="204.56701802575105" viewBox="-4.85 -34.95 46.800000000000004 34.95" height="152.7696" data-palette-color="#aaaaaa"><path d="M36.15-2.15L41.95-2.15 41.95 0 30.8 0 27.3-7.95 9.8-7.95 6.3 0-4.85 0-4.85-2.15 0.95-2.15 15.4-34.95 21.7-34.95 36.15-2.15ZM12.2-13.4L24.9-13.4 18.55-27.8 12.2-13.4Z" opacity="1" transform="matrix(1,0,0,1,0,0)" fill="#aaaaaa" class="wordmark-text-0" data-fill-palette-color="primary" id="text-0"></path></svg></g></svg></g></svg></g></svg></g><g></g></svg></g></svg></g></svg></g><g><path d="M151.036 11.15A102.284 102.284 0 0 1 244.484 11.15L230.707 11.15A88.507 88.507 0 0 0 164.813 11.15L151.036 11.15M151.036 236.05A102.284 102.284 0 0 0 244.484 236.05L230.707 236.05A88.507 88.507 0 0 1 164.813 236.05L151.036 236.05" fill="#ef86c1" stroke="transparent" data-fill-palette-color="tertiary"></path></g></svg></g><defs></defs></svg><rect width="395.52" height="247.2" fill="none" stroke="none" visibility="hidden"></rect></g></svg></g></svg>